<svg xmlns="http://www.w3.org/2000/svg" width="256" height="256"><path fill-opacity=".035" d="M0 128.004v128.004l128.25-.254 128.25-.254.254-127.75L257.008 0H0v128.004m.485.496c0 70.4.119 99.053.265 63.672.146-35.38.146-92.98 0-128C.604 29.153.485 58.1.485 128.5" fill="#1976D2" fill-rule="evenodd"/><path fill-opacity=".443" d="M123.973 16.711c-1.36.941-12.373 11.129-24.473 22.64l-22 20.929-.292-7.64-.292-7.64H38v52.69l-17.75 16.861C1.726 132.148.094 134.025.035 137.795-.016 141.106 4.275 145 7.973 145c2.543 0 5.311-2.109 16.295-12.417L37.5 120.167l.5 58.953c.432 50.945.704 59.082 2 59.902 2.451 1.548 174.205 1.284 176.308-.272 1.548-1.145 1.711-6.19 1.941-60.148l.251-58.898 13.266 12.648C242.877 142.945 245.533 145 248.115 145c3.636 0 8.908-4.98 8.846-8.356-.048-2.594 1.764-.806-60.461-59.685-27.5-26.021-53.436-50.607-57.635-54.635-8.15-7.818-10.453-8.685-14.892-5.613m-3.716 102.352c-6.523 2.577-15.009 10.212-18.449 16.598-7.432 13.799-5.355 30.108 5.323 41.791 2.974 3.255 7.287 6.588 10.679 8.254 5.077 2.493 6.767 2.794 15.69 2.794 8.748 0 10.713-.334 15.696-2.67 3.134-1.469 7.782-4.755 10.33-7.304 2.549-2.548 5.835-7.196 7.304-10.33 2.306-4.92 2.67-6.99 2.67-15.196 0-8.191-.362-10.258-2.625-15-3.717-7.786-8.734-13.111-16.049-17.03-5.723-3.068-7.231-3.419-15.826-3.685-7.737-.239-10.473.091-14.743 1.778M.195 137.5c.02 1.65.244 2.204.498 1.231.254-.973.237-2.323-.037-3-.274-.677-.481.119-.461 1.769" fill="#1976D2" fill-rule="evenodd"/><path fill-opacity=".241" d="M107.841 32.19c-9.437 8.97-20.218 19.147-23.957 22.614l-6.798 6.304-.293-7.804L76.5 45.5H38.872l.093 26.062.094 26.061-13.213 12.439C-.087 134.473 1 133.314 1 136.554c0 4.966 2.542 7.603 6.988 7.249 4.348-.347 9.722-5.178 79.871-71.803 21.716-20.625 39.82-37.5 40.232-37.5.412 0 15.523 13.999 33.579 31.109 85.74 81.246 82.754 78.564 87.04 78.198 4.462-.381 7.87-4.361 6.932-8.096-.385-1.534-23.809-24.482-62.1-60.837-54.863-52.09-61.861-58.407-65.012-58.684-3.334-.294-4.482.594-20.689 16m11.646 75.609c-12.718 4.397-22.618 13.057-28.082 24.564-6.742 14.196-6.636 27.91.323 41.819l3.523 7.043-15.126 15.149C66.858 209.663 65 211.921 65 214.762c0 4.18 3.033 7.238 7.177 7.238 2.759 0 5.193-2.001 18.468-15.176l15.291-15.177 4.782 2.582c7.252 3.914 14.811 5.771 23.495 5.771 40.446 0 61.815-48.639 34.525-78.582-9.664-10.603-20.85-15.441-35.577-15.385-5.545.021-10.465.656-13.674 1.766m5.247 9.23c-10.034 2.521-19.176 10.061-23.947 19.753-3.019 6.131-3.287 7.454-3.286 16.197 0 7.783.415 10.419 2.269 14.441 11.437 24.81 42.867 29.982 61.081 10.053 9.404-10.29 12.168-24.789 7.197-37.758-3.121-8.141-11.176-16.602-19.261-20.23-6.907-3.1-17.274-4.158-24.053-2.456" fill="#1976D2" fill-rule="evenodd"/><path fill-opacity=".356" d="M39 71.089v25.089l3.126-2.631c1.72-1.447 10.045-9.223 18.5-17.279L76 61.619V46H39v25.089m85.108 35.993c-11.952 2.347-25.279 12.133-30.909 22.697-8.009 15.025-8.129 31.528-.333 45.656l2.795 5.065-15.331 15.571c-16.314 16.57-17.308 18.264-13.486 22.985 1.23 1.518 2.92 2.277 5.072 2.277 2.826 0 5.113-1.883 18.432-15.182l15.206-15.182 6.85 3.447c40.062 20.156 82.787-21.829 63.11-62.018-9.377-19.152-30.307-29.46-51.406-25.316m-3.216 11.272c-9.8 4.032-16.524 10.189-20.953 19.189-2.118 4.305-2.438 6.339-2.431 15.457.007 9.019.342 11.174 2.374 15.28 10.691 21.595 36.966 28.279 56.063 14.26 8.774-6.441 15.055-18.796 15.055-29.616 0-6.603-3.374-16.563-7.509-22.167-4.105-5.563-12.287-11.289-19.03-13.319-7.267-2.187-16.939-1.811-23.569.916" fill="#1976D2" fill-rule="evenodd"/></svg>